<svg xmlns="http://www.w3.org/2000/svg" viewBox="0 0 560 480" role="img" aria-labelledby="t d">
<title id="t">APPAREL / FASHION</title><desc id="d">Stylized DIGITEX sample artwork for Industry.</desc>
<defs><pattern id="stitch" width="13" height="13" patternUnits="userSpaceOnUse"><path d="M0 13 13 0" stroke="#fff" stroke-opacity=".07" stroke-width="2"/></pattern><linearGradient id="glow" x1="0" y1="0" x2="1" y2="1"><stop stop-color="#93c5fd"/><stop offset="1" stop-color="#14b8a6"/></linearGradient></defs>
<rect width="560" height="480" rx="32" fill="#0f172a"/><circle cx="458" cy="46" r="110" fill="#93c5fd" opacity=".12"/><circle cx="70" cy="430" r="130" fill="#14b8a6" opacity=".10"/><rect width="560" height="480" rx="32" fill="url(#stitch)"/>
<g><path d="m153 125 88-46c20 28 62 28 82 0l88 46 71 111-77 46-34-57v179H193V225l-34 57-77-46 71-111Z" fill="#93c5fd"/><circle cx="282" cy="242" r="58" fill="#14b8a6"/><path d="M252 240h60m-30-30v60" stroke="#0f172a" stroke-width="12" stroke-linecap="round"/></g>
<text x="38" y="420" font-size="19" font-family="Arial" font-weight="700" fill="#fff">APPAREL / FASHION</text><text x="38" y="447" font-size="13" font-family="Arial" letter-spacing="2.4" fill="#fff" opacity=".58">DIGITEX / INDUSTRY</text>
</svg>