<svg xmlns="http://www.w3.org/2000/svg" viewBox="0 0 560 480" role="img" aria-labelledby="t d">
<title id="t">CORPORATE / UNIFORM</title><desc id="d">Stylized DIGITEX sample artwork for Embroidery.</desc>
<defs><pattern id="stitch" width="13" height="13" patternUnits="userSpaceOnUse"><path d="M0 13 13 0" stroke="#fff" stroke-opacity=".07" stroke-width="2"/></pattern><linearGradient id="glow" x1="0" y1="0" x2="1" y2="1"><stop stop-color="#cbd5e1"/><stop offset="1" stop-color="#2563eb"/></linearGradient></defs>
<rect width="560" height="480" rx="32" fill="#0f172a"/><circle cx="458" cy="46" r="110" fill="#cbd5e1" opacity=".12"/><circle cx="70" cy="430" r="130" fill="#2563eb" opacity=".10"/><rect width="560" height="480" rx="32" fill="url(#stitch)"/>
<g><path d="m173 124 68-36c19 27 63 27 82 0l68 36 60 93-67 38-24-42v167H204V213l-24 42-67-38 60-93Z" fill="#cbd5e1"/><rect x="241" y="190" width="82" height="68" rx="12" fill="#2563eb"/><text x="282" y="235" text-anchor="middle" font-size="32" font-weight="800" fill="#fff">DIGITEX</text></g>
<text x="38" y="420" font-size="19" font-family="Arial" font-weight="700" fill="#fff">CORPORATE / UNIFORM</text><text x="38" y="447" font-size="13" font-family="Arial" letter-spacing="2.4" fill="#fff" opacity=".58">DIGITEX / EMBROIDERY</text>
</svg>