<svg xmlns="http://www.w3.org/2000/svg" viewBox="0 0 560 480" role="img" aria-labelledby="t d">
<title id="t">EAGLE / JACKET</title><desc id="d">Stylized DIGITEX sample artwork for Embroidery.</desc>
<defs><pattern id="stitch" width="13" height="13" patternUnits="userSpaceOnUse"><path d="M0 13 13 0" stroke="#fff" stroke-opacity=".07" stroke-width="2"/></pattern><linearGradient id="glow" x1="0" y1="0" x2="1" y2="1"><stop stop-color="#2563eb"/><stop offset="1" stop-color="#14b8a6"/></linearGradient></defs>
<rect width="560" height="480" rx="32" fill="#0f172a"/><circle cx="458" cy="46" r="110" fill="#2563eb" opacity=".12"/><circle cx="70" cy="430" r="130" fill="#14b8a6" opacity=".10"/><rect width="560" height="480" rx="32" fill="url(#stitch)"/>
<g><path d="M190 190c55-74 108-82 162-39-28 8-52 22-70 44 37-9 72-6 105 9-50 12-89 38-116 78-17-40-44-70-81-92Z" fill="#2563eb"/><path d="M274 194c18-44 50-75 95-92-9 35-28 65-56 89 28-5 55-2 81 9-35 8-68 25-97 52" fill="none" stroke="#14b8a6" stroke-width="12" stroke-linecap="round" stroke-dasharray="2 18"/></g>
<text x="38" y="420" font-size="19" font-family="Arial" font-weight="700" fill="#fff">EAGLE / JACKET</text><text x="38" y="447" font-size="13" font-family="Arial" letter-spacing="2.4" fill="#fff" opacity=".58">DIGITEX / EMBROIDERY</text>
</svg>