<svg xmlns="http://www.w3.org/2000/svg" viewBox="0 0 560 480" role="img" aria-labelledby="t d">
<title id="t">MASCOT / PATCH</title><desc id="d">Stylized DIGITEX sample artwork for Patches.</desc>
<defs><pattern id="stitch" width="13" height="13" patternUnits="userSpaceOnUse"><path d="M0 13 13 0" stroke="#fff" stroke-opacity=".07" stroke-width="2"/></pattern><linearGradient id="glow" x1="0" y1="0" x2="1" y2="1"><stop stop-color="#c4b5fd"/><stop offset="1" stop-color="#f8fafc"/></linearGradient></defs>
<rect width="560" height="480" rx="32" fill="#312e81"/><circle cx="458" cy="46" r="110" fill="#c4b5fd" opacity=".12"/><circle cx="70" cy="430" r="130" fill="#f8fafc" opacity=".10"/><rect width="560" height="480" rx="32" fill="url(#stitch)"/>
<g><circle cx="282" cy="245" r="151" fill="#c4b5fd"/><path d="M206 185c37-58 116-58 153 0l-16 118c-43 41-78 41-121 0l-16-118Z" fill="#f8fafc"/><path d="m218 198 40 26-39 26m127-52-40 26 39 26M247 299c23 19 47 19 70 0" fill="none" stroke="#312e81" stroke-width="10" stroke-linecap="round"/></g>
<text x="38" y="420" font-size="19" font-family="Arial" font-weight="700" fill="#fff">MASCOT / PATCH</text><text x="38" y="447" font-size="13" font-family="Arial" letter-spacing="2.4" fill="#fff" opacity=".58">DIGITEX / PATCHES</text>
</svg>