<svg xmlns="http://www.w3.org/2000/svg" viewBox="0 0 560 480" role="img" aria-labelledby="t d">
<title id="t">ALPINE / PATCH</title><desc id="d">Stylized DIGITEX sample artwork for Patches.</desc>
<defs><pattern id="stitch" width="13" height="13" patternUnits="userSpaceOnUse"><path d="M0 13 13 0" stroke="#fff" stroke-opacity=".07" stroke-width="2"/></pattern><linearGradient id="glow" x1="0" y1="0" x2="1" y2="1"><stop stop-color="#99f6e4"/><stop offset="1" stop-color="#f8fafc"/></linearGradient></defs>
<rect width="560" height="480" rx="32" fill="#0f766e"/><circle cx="458" cy="46" r="110" fill="#99f6e4" opacity=".12"/><circle cx="70" cy="430" r="130" fill="#f8fafc" opacity=".10"/><rect width="560" height="480" rx="32" fill="url(#stitch)"/>
<g><circle cx="282" cy="213" r="146" fill="#99f6e4"/><path d="M118 336 240 164l50 71 44-53 112 154H118Z" fill="#f8fafc"/><path d="m207 210 33-46 27 38-28-8-32 16Zm96 40 31-68 34 47-35-11-30 32Z" fill="#0f766e" opacity=".85"/></g>
<text x="38" y="420" font-size="19" font-family="Arial" font-weight="700" fill="#fff">ALPINE / PATCH</text><text x="38" y="447" font-size="13" font-family="Arial" letter-spacing="2.4" fill="#fff" opacity=".58">DIGITEX / PATCHES</text>
</svg>